<?xml version="1.0" encoding="UTF-8" standalone="no"?>
<!-- Created with Inkscape (http://www.inkscape.org/) -->

<svg
   xmlns:dc="http://purl.org/dc/elements/1.1/"
   xmlns:cc="http://creativecommons.org/ns#"
   xmlns:rdf="http://www.w3.org/1999/02/22-rdf-syntax-ns#"
   xmlns:svg="http://www.w3.org/2000/svg"
   xmlns="http://www.w3.org/2000/svg"
   xmlns:sodipodi="http://sodipodi.sourceforge.net/DTD/sodipodi-0.dtd"
   xmlns:inkscape="http://www.inkscape.org/namespaces/inkscape"
   width="210mm"
   height="297mm"
   viewBox="0 0 744.09448819 1052.3622047"
   id="svg2"
   version="1.1"
   inkscape:version="0.91 r13725"
   sodipodi:docname="logo-original.svg">
  <defs
     id="defs4" />
  <sodipodi:namedview
     id="base"
     pagecolor="#ffffff"
     bordercolor="#666666"
     borderopacity="1.0"
     inkscape:pageopacity="0.0"
     inkscape:pageshadow="2"
     inkscape:zoom="1.4"
     inkscape:cx="-743.82835"
     inkscape:cy="550.57763"
     inkscape:document-units="px"
     inkscape:current-layer="layer1"
     showgrid="false"
     showguides="false"
     inkscape:window-width="1855"
     inkscape:window-height="1056"
     inkscape:window-x="65"
     inkscape:window-y="24"
     inkscape:window-maximized="1" />
  <metadata
     id="metadata7">
    <rdf:RDF>
      <cc:Work
         rdf:about="">
        <dc:format>image/svg+xml</dc:format>
        <dc:type
           rdf:resource="http://purl.org/dc/dcmitype/StillImage" />
        <dc:title></dc:title>
      </cc:Work>
    </rdf:RDF>
  </metadata>
  <g
     inkscape:label="Layer 1"
     inkscape:groupmode="layer"
     id="layer1">
    <path
       style="fill:#db5800;fill-opacity:1"
       d="m -902.05293,323.50507 -176.66137,0 0,-85.00775 250.28464,0.50775 c 55.8616,138.33334 111.72322,276.66667 167.58483,415 l 327.13053,0.50597 0,84.99403 c -133.5,-0.0143 -400.50001,-0.043 -400.50001,-0.043 -55.94637,-138.65227 -111.8924,-277.30467 -167.83862,-415.957 z m 146.3349,-84.25 c 0,0 66.20694,-0.75 106.68269,-0.75 36.17775,90.06257 73.73517,182.93444 107.16133,265.5 68.7199,0.16978 138.86838,0.33956 207.58828,0.50934 l 0,84.99066 c -93.16667,-0.012 -280.92858,-0.036 -280.92858,-0.036 -46.11077,-117.01324 -95.65707,-232.70548 -140.50372,-350.214 z m 258.00372,200.59052 c 0,0 47.3945,-59.24883 67.45555,-84.34052 l 97.54446,0 0,85 c -55.00014,-0.063 -110.00492,0.27658 -165.00001,-0.65948 z"
       id="path4147"
       inkscape:connector-curvature="0"
       sodipodi:nodetypes="ccccccccccccccccccccc" />
  </g>
</svg>
