<?xml version="1.0" encoding="UTF-8" standalone="no"?>
<!-- Created with Inkscape (http://www.inkscape.org/) -->

<svg
   xmlns:dc="http://purl.org/dc/elements/1.1/"
   xmlns:cc="http://creativecommons.org/ns#"
   xmlns:rdf="http://www.w3.org/1999/02/22-rdf-syntax-ns#"
   xmlns:svg="http://www.w3.org/2000/svg"
   xmlns="http://www.w3.org/2000/svg"
   xmlns:sodipodi="http://sodipodi.sourceforge.net/DTD/sodipodi-0.dtd"
   xmlns:inkscape="http://www.inkscape.org/namespaces/inkscape"
   width="29.780001"
   height="19.999941"
   viewBox="0 0 29.780001 19.999941"
   id="svg2"
   version="1.1"
   inkscape:version="0.91 r13725"
   sodipodi:docname="logo-white.svg">
  <defs
     id="defs4" />
  <sodipodi:namedview
     id="base"
     pagecolor="#ffffff"
     bordercolor="#666666"
     borderopacity="1.0"
     inkscape:pageopacity="0.0"
     inkscape:pageshadow="2"
     inkscape:zoom="1.4"
     inkscape:cx="334.88595"
     inkscape:cy="-243.70815"
     inkscape:document-units="px"
     inkscape:current-layer="layer1"
     showgrid="false"
     showguides="false"
     inkscape:window-width="1855"
     inkscape:window-height="1056"
     inkscape:window-x="65"
     inkscape:window-y="24"
     inkscape:window-maximized="1"
     fit-margin-top="0"
     fit-margin-left="0"
     fit-margin-right="0"
     fit-margin-bottom="0"
     units="px" />
  <metadata
     id="metadata7">
    <rdf:RDF>
      <cc:Work
         rdf:about="">
        <dc:format>image/svg+xml</dc:format>
        <dc:type
           rdf:resource="http://purl.org/dc/dcmitype/StillImage" />
        <dc:title></dc:title>
      </cc:Work>
    </rdf:RDF>
  </metadata>
  <g
     inkscape:label="Layer 1"
     inkscape:groupmode="layer"
     id="layer1"
     transform="translate(1078.7143,-238.07648)">
    <path
       style="fill:#ffffff;fill-opacity:1"
       d="m -1071.662,241.46996 -7.0523,0 0,-3.39348 9.9912,0.0202 c 2.2301,5.5222 4.46,11.04441 6.69,16.56662 l 13.0589,0.0202 0,3.39292 c -5.3292,-5.7e-4 -15.9878,-0.002 -15.9878,-0.002 -2.2333,-5.53495 -4.4667,-11.0699 -6.7,-16.60483 z m 5.8416,-3.36323 c 0,0 2.6429,-0.0299 4.2587,-0.0299 1.4442,3.59526 2.9435,7.30267 4.2778,10.59864 2.7433,0.007 5.5436,0.0136 8.2869,0.0203 l 0,3.39279 c -3.7192,-4.8e-4 -11.2146,-0.001 -11.2146,-0.001 -1.8407,-4.67112 -3.8185,-9.2895 -5.6088,-13.98039 z m 10.2993,8.00749 c 0,0 1.892,-2.36519 2.6929,-3.36683 l 3.8939,0 0,3.39315 c -2.1956,-0.002 -4.3914,0.011 -6.5868,-0.0263 z"
       id="path4147"
       inkscape:connector-curvature="0"
       sodipodi:nodetypes="ccccccccccccccccccccc" />
  </g>
</svg>
